<?xml version="1.0" encoding="UTF-8" standalone="no"?>
<svg
	xmlns="http://www.w3.org/2000/svg"
	width="250px"
	height="250px"
	viewBox="0 0 885 885"
	version="1.1">
	<g transform="translate(0,-166)">
		<ellipse
			style="fill:#ffd42a"
			cx="442"
			cy="611"
			rx="380"
			ry="380" />
		<g transform="scale(0.93852103, 1.0655062)">
			<path
				d="m 287.58089,590.58147 -41.50762,2.67312 q 4.15819,-4.67796 6.23728,-9.57868 2.07909,-4.97498 2.07909,-10.0242 0,-6.75706 -3.19289,-11.13801 -3.19289,-4.38094 -8.01936,-4.38094 -5.569,0 -9.28167,4.6037 -3.63842,4.52946 -3.63842,11.50927 0,4.75222 1.48507,8.61339 1.48507,3.78692 4.4552,6.60855 l -40.76509,4.75221 9.28167,-9.72719 3.1929,-61.03625 -12.17755,-6.08877 38.76025,-4.23245 -8.98466,18.11782 q 9.35592,-8.9104 18.19207,-13.43985 8.83615,-4.52946 16.78126,-4.52946 12.32605,0 19.67714,8.16787 7.42533,8.09362 7.42533,21.68198 0,10.69248 -3.78692,21.38496 -3.78692,10.61823 -11.138,20.71669 l 14.92492,5.34624 z"
			/>
			<path
				d="m 336.81086,527.76313 q -1.93059,2.15335 -2.97013,4.75222 -0.9653,2.59887 -0.9653,5.569 0,6.38579 4.3067,11.21226 4.30669,4.75221 9.80144,4.75221 2.74737,0 5.19773,-1.1138 2.52462,-1.18805 5.19774,-3.71267 -4.23244,-8.39063 -9.28167,-13.66261 -5.04923,-5.27199 -11.28651,-7.79661 z m 49.89825,-12.92008 -10.91524,6.08878 q 5.12348,17.00401 7.72235,31.1864 2.59886,14.10814 2.59886,24.87488 0,23.09279 -11.43501,35.86436 -11.36076,12.84583 -31.92894,12.84583 -8.61339,0 -17.00402,-2.00484 -8.31637,-2.00484 -17.22678,-6.23728 l -10.61823,8.68764 15.37045,-31.63192 q 6.60855,7.49959 13.88537,11.36076 7.35109,3.86117 15.14769,3.86117 8.83615,0 15.22193,-7.27682 6.38579,-7.27683 6.38579,-17.22678 0,-3.86118 -0.89104,-7.42534 -0.81678,-3.63841 -2.59886,-7.35108 -6.60855,10.61823 -14.62791,15.59321 -8.01937,4.97497 -18.56334,4.97497 -13.95963,0 -23.38981,-10.61823 -9.43017,-10.61823 -9.43017,-26.35994 0,-18.11782 9.94995,-29.9241 9.94994,-11.88054 25.02338,-11.88054 8.31637,0 16.18723,4.23245 7.9451,4.23244 15.5932,12.77157 l -6.83131,-17.00402 32.37446,2.59887 z"
			/>
			<path
				d="m 433.85999,569.41926 q 11.36076,-6.6828 16.85551,-12.10329 5.569,-5.4205 5.569,-9.80144 0,-2.82163 -2.30185,-4.67796 -2.2276,-1.85634 -5.64326,-1.85634 -2.37611,0 -5.34624,0.66828 -2.97013,0.59403 -6.23728,1.78208 l -2.89588,25.98867 z m 5.34624,-50.19526 q 8.31637,-0.96529 13.43986,-3.78692 5.12348,-2.89588 5.12348,-6.38579 0,-5.04923 -5.4205,-7.94511 -5.42049,-2.97013 -15.07343,-3.19289 l 1.93059,21.31071 z m 32.67147,8.83615 q 16.70701,1.03955 25.39465,7.42533 8.68764,6.38579 8.68764,17.6723 0,15.74171 -12.47456,23.98383 -12.47456,8.16787 -41.65613,11.28651 l -65.56571,6.83131 30.88939,-14.4794 -14.85067,-89.84656 -21.31071,-9.72719 75.88693,3.93543 q 21.90474,1.1138 30.51812,5.569 8.68765,4.4552 8.68765,14.03389 0,8.09361 -6.01453,13.88537 -5.94026,5.71751 -18.19207,9.43018 z"
			/>
			<path
				d="m 568.25854,591.324 -61.77879,3.04439 17.00402,-9.72719 -1.33656,-85.3171 -15.37045,-2.74737 58.28888,-16.40999 -13.58836,105.06849 16.78126,6.08877 z"
			/>
			<path
				d="m 587.93568,541.27724 q 2.30185,2.82163 5.19773,4.15819 2.89588,1.33656 6.83131,1.33656 6.75705,0 11.43502,-4.15818 4.67796,-4.15819 4.67796,-10.17271 0,-2.37611 -0.74254,-4.3067 -0.74253,-1.93059 -2.30185,-3.41565 -9.05891,2.52461 -15.29619,6.6828 -6.23728,4.08393 -9.80144,9.87569 z m 69.05561,11.58353 q 0,6.08877 -1.55932,11.36076 -1.55932,5.27199 -4.67796,9.8757 -6.16303,9.13316 -16.03872,14.40515 -9.80144,5.27198 -20.79094,5.27198 -18.71184,0 -30.88939,-11.21225 -12.1033,-11.28651 -12.1033,-28.51329 0,-18.26632 12.32606,-29.84985 12.40031,-11.65777 31.92894,-11.65777 18.41483,0 30.0726,11.28651 11.73203,11.28651 11.73203,29.03306 z"
			/>
			<path
				d="m 704.81046,527.76313 q -1.93059,2.15335 -2.97014,4.75222 -0.96529,2.59887 -0.96529,5.569 0,6.38579 4.30669,11.21226 4.3067,4.75221 9.80144,4.75221 2.74738,0 5.19774,-1.1138 2.52461,-1.18805 5.19773,-3.71267 -4.23244,-8.39063 -9.28166,-13.66261 -5.04923,-5.27199 -11.28651,-7.79661 z m 49.89825,-12.92008 -10.91525,6.08878 q 5.12349,17.00401 7.72235,31.1864 2.59887,14.10814 2.59887,24.87488 0,23.09279 -11.43502,35.86436 -11.36076,12.84583 -31.92894,12.84583 -8.61338,0 -17.00401,-2.00484 -8.31638,-2.00484 -17.22678,-6.23728 l -10.61823,8.68764 15.37044,-31.63192 q 6.60855,7.49959 13.88538,11.36076 7.35108,3.86117 15.14768,3.86117 8.83615,0 15.22194,-7.27682 6.38579,-7.27683 6.38579,-17.22678 0,-3.86118 -0.89104,-7.42534 -0.81679,-3.63841 -2.59887,-7.35108 -6.60855,10.61823 -14.62791,15.59321 -8.01936,4.97497 -18.56334,4.97497 -13.95963,0 -23.3898,-10.61823 -9.43018,-10.61823 -9.43018,-26.35994 0,-18.11782 9.94995,-29.9241 9.94995,-11.88054 25.02338,-11.88054 8.31638,0 16.18723,4.23245 7.94511,4.23244 15.5932,12.77157 l -6.8313,-17.00402 32.37446,2.59887 z"
			/>
		</g>
	</g>
</svg>